<?xml version="1.0" standalone="no"?>
<!DOCTYPE svg PUBLIC "-//W3C//DTD SVG 20010904//EN"
 "http://www.w3.org/TR/2001/REC-SVG-20010904/DTD/svg10.dtd">
<svg version="1.0" xmlns="http://www.w3.org/2000/svg"
 width="838.000000pt" height="433.000000pt" viewBox="0 0 838.000000 433.000000"
 preserveAspectRatio="xMidYMid meet">

<g transform="translate(0.000000,433.000000) scale(0.100000,-0.100000)"
fill="#000000" stroke="none">
<path d="M906 4319 c-208 -30 -427 -128 -579 -257 -118 -101 -234 -262 -278
-389 -50 -144 -49 -120 -49 -1289 l0 -1094 4191 0 4192 0 -6 163 c-4 137 -9
180 -35 277 -46 178 -162 400 -311 594 -405 530 -1184 1190 -1700 1442 -476
233 -1049 412 -1611 504 -387 63 -289 60 -2100 59 -910 -1 -1682 -5 -1714 -10z
m5745 -996 c166 -118 365 -274 519 -407 123 -107 386 -362 472 -458 l60 -68
-515 0 -514 0 -62 63 c-106 108 -182 239 -223 382 -20 68 -23 102 -23 230 1
162 13 227 62 338 l26 57 26 -16 c14 -9 92 -63 172 -121z m-2871 -623 l0 -540
-560 0 -560 0 0 540 0 540 560 0 560 0 0 -540z m1930 0 l0 -540 -560 0 -560 0
0 540 0 540 560 0 560 0 0 -540z m-3860 -10 l0 -540 -560 0 -560 0 0 540 0
540 560 0 560 0 0 -540z"/>
<path d="M2 953 c6 -197 25 -275 100 -413 143 -262 414 -455 733 -521 87 -18
208 -19 3346 -19 3538 0 3328 -3 3496 54 363 124 626 403 689 733 8 41 14 133
14 204 l0 129 -4191 0 -4191 0 4 -167z"/>
</g>
</svg>
